<svg xmlns="http://www.w3.org/2000/svg" xmlns:xlink="http://www.w3.org/1999/xlink" preserveAspectRatio="xMidYMid meet" version="1.0" viewBox="-0.1 0.3 274.3 208.5" zoomAndPan="magnify" style="fill: rgb(0, 0, 0);" original_string_length="15904" width="232.39722788361544px" height="177.04443360588158px"><linearGradient xmlns:xlink="http://www.w3.org/1999/xlink" gradientTransform="matrix(1 0 0 -1 0 210)" gradientUnits="userSpaceOnUse" id="__id17_s2c681c1z3" x1="82.264" x2="194.544" xlink:actuate="onLoad" xlink:show="other" xlink:type="simple" y1="232.792" y2="5.079"><stop offset="0" style="stop-color: rgb(243, 224, 156);"/><stop offset=".537" style="stop-color: rgb(205, 163, 73);"/><stop offset="1" style="stop-color: rgb(194, 145, 46);"/></linearGradient><path d="M6.8,147c0.3-0.2,0.4-0.4,0.5-0.5c4.5-2.6,8.5-6,12.7-9.1c3.8-2.9,7.7-5.7,11.6-8.5 c3.4-2.4,7.1-4,11.3-4.1c2.3-0.1,4.6,0.2,6.9,0.3c2.9,0.2,5.7,0.5,8.6,0.6c3,0,5.9-0.8,8.7-1.7c1.7-0.5,3.4-1,5.3-1.6 c-0.9,1.7-1.6,3.3-2.5,4.8c-0.2,0.3-0.5,0.5-0.9,0.6c-5.2,2.1-10.5,3.5-16.1,3.1c-2.2-0.1-4.5-0.3-6.7-0.4c-4.4-0.1-8.6,1-12.5,3 c-5.6,2.9-10.8,6.3-15.8,10.1c-1.5,1.1-2.9,2.2-4.4,3.2c-0.3,0.2-0.7,0.5-1.1,0.5C10.6,147.2,8.8,147.1,6.8,147z M46.4,13.5 c1.2,2.7,2.2,5.4,3.5,8c3.2,6.4,6.4,12.8,9.7,19.1c3.8,7.2,7.5,14.6,12.7,21c0.3,0.4,0.8,0.9,1.3,1c3.2,0.9,6.4,1.9,9.7,2.6 c2.9,0.6,6,0.9,8.9,1.3c0.3,0,0.6,0,0.8-0.1c-0.7-0.3-1.5-0.5-2.2-0.6c-4.8-0.8-9.6-2-14.2-3.7c-0.7-0.2-1.2-0.6-1.6-1.2 c-1.4-2.4-2.8-4.7-4.3-7.1c-2.5-4.2-5.1-8.4-7.5-12.6c-4.2-7.5-7.8-15.2-10.1-23.5c-0.5-1.8-0.9-3.6-1.3-5.5 c-0.1-0.5-0.2-0.9-0.8-1.2c-2.4-1-4.8-2.1-7.3-3.3C44.8,9.7,45.6,11.6,46.4,13.5z M137.7,74.9c-1.2-0.8-2.5-1.7-3.8-2.5 c-4.7-3-9.9-4.6-15.4-5.2c-3.3-0.3-6.7-0.5-10-0.6c-8.7-0.2-17.2-1.5-25.7-3.5c-1.9-0.4-3.7-1-5.6-1.6c-0.5-0.2-1-0.5-1.3-0.9 c-0.6-0.6-1-1.3-1.4-2c-3.4-5.8-6.8-11.6-10.2-17.4c-3.4-5.8-6.2-11.8-8.5-18.1c-2-5.5-3.3-11.3-4.5-17c0-0.1,0-0.2,0.1-0.4 C51.7,5.8,51.9,5.8,52,6c6.6,8.2,15.1,13.6,24.9,17.1c3.3,1.2,6.6,2.1,10,3.2c8.8,2.8,16.5,7.3,23.5,13.3c0.8,0.7,1.5,1.6,2.2,2.5 c8.2,10.5,16.4,21.1,24.5,31.6c0.3,0.4,0.5,0.7,0.8,1.1C137.9,74.8,137.8,74.9,137.7,74.9z M154.4,101.7c1.2-1.1,2.4-2.1,3.6-3.3 c-0.4-0.9-0.7-1.7-1.2-2.7c-1.1,2.1-2.1,3.9-3.1,5.8C154.1,101.6,154.4,101.8,154.4,101.7z M34.1,203.7c0.3-0.2,0.6-0.4,0.9-0.7 c28-22.5,55.9-45,83.9-67.5c5.6-4.5,11.1-9,16.7-13.5c1-0.8,1.1-0.8,2.4-0.1c-35.2,28.4-70.3,56.8-105.6,85.3 c-0.5-1.1-0.8-2-1.2-2.9c-2.6-5.8-5.2-11.5-7.8-17.2c-0.4-0.9-0.8-1.7-1-2.6c-0.3-1.3-0.1-1.7,1.1-2.4c7.2-4.2,14.3-8.6,21.1-13.5 c3.6-2.5,7.1-5.2,10.3-8.1c5.6-5,9.4-11.1,11.1-18.4c1.2-5,2.5-9.9,4.6-14.6c1-2.2,2-4.3,3.5-6.1c0.2-0.3,0.4-0.6,0.7-1.1 c-0.5,0-0.8,0-1,0.1c-4.2,1.9-8.7,3.1-13.2,3.8c-2.3,0.4-4.8,0.1-7.2,0c-3-0.2-6-0.6-9-0.7c-3.8-0.2-7.5,0.8-10.8,2.7 c-2.8,1.7-5.5,3.5-8.2,5.5c-4.6,3.4-9,6.9-13.6,10.4c-1.5,1.1-3.1,2.1-4.7,3.1c-0.7,0.5-1.3,0.9-2.2,1.5c-1.7-4.4-3.3-8.6-4.9-13.1 c21.1-15.2,42.2-30.5,63.3-45.8c0.4,0.2,0.8,0.4,1.5,0.8c-20.9,15.3-41.7,30.4-62.5,45.6c1.2,3,2.3,5.8,3.6,8.7 c0.3-0.2,0.7-0.4,0.9-0.6c5.1-3.9,10.1-7.8,15.1-11.6c5.8-4.4,12-7.8,19.2-8.9c2.6-0.4,5.3-0.6,7.9-0.3c4.3,0.5,8.6,0.7,13,0.4 c4.9-0.4,9.5-1.9,13.9-3.9c0.3-0.1,0.5-0.3,0.6-0.8c-0.4,0.1-0.8,0.2-1.2,0.4c-3.1,1.3-6.2,2.5-9.5,3.1c-3.8,0.7-7.7,1-11.7,0.6 c-3.6-0.3-7.3-0.7-10.9-0.4c-3.3,0.3-6.5,1.1-9.5,2.3c-4.7,1.9-9,4.5-13,7.6c-4.4,3.5-8.9,6.9-13.4,10.3c-0.3,0.2-0.7,0.5-1.2,0.8 c-1.1-2.6-2.1-5-3.1-7.6c0.4-0.3,0.7-0.6,1-0.8c19.9-14.5,39.9-29.1,59.8-43.6c0.2-0.2,0.4-0.3,0.6-0.5c0.7-0.7,1.4-0.6,2.2-0.2 c4.4,2.1,8.9,4.1,13.4,6.1c18,8.2,36,16.4,53.9,24.6c0.5,0.2,1,0.5,1.7,0.8c-33.9,27.3-67.7,54.5-101.6,81.8 c-3.3-6.3-6.4-12.5-9.7-18.8c0.6-0.4,1.2-0.7,1.8-1.1c9.1-5.3,18.4-10.5,26.9-16.9c5.4-4,9.9-8.8,12.7-15c1.7-3.7,2.6-7.6,3.5-11.5 c0.4-1.7,0.7-3.5,1.1-5.2c1.4-5.7,3.9-10.8,8-15c0.1-0.1,0.2-0.2,0.3-0.4c0-0.1,0-0.2,0.1-0.4c-0.3,0.2-0.6,0.3-0.8,0.4 c-0.9,1-1.8,1.9-2.6,2.9c-2.8,4.1-4.8,8.5-5.8,13.4c-0.8,3.9-1.8,7.7-2.9,11.5c-1.5,5.3-4.5,9.7-8.2,13.7c-3.1,3.3-6.7,5.7-10.4,8.3 c-5.1,3.6-10.6,6.7-16,9.9c-2.2,1.3-4.4,2.6-6.6,3.9c-0.2,0.1-0.4,0.2-0.5,0.3c-1.3,0.9-1.4,1.4-0.6,2.7 C27.8,191.6,31,197.6,34.1,203.7z M90.4,135.1c-1.9,0-3.6,0.1-5.3,0c-1.7-0.2-3.5-0.6-5.3-0.9c-0.5,1.8-1.1,3.4-1.6,5.1 c-0.5,1.7-1.6,3.1-1.7,5c0.5,0.1,0.8,0.1,1.1,0.1c2,0.1,4.1,0.1,6.1,0.2c1,0,2,0,3,0.1c0.7,0,1-0.3,1.2-1c0.5-1.9,1.1-3.7,1.7-5.5 C89.8,137.1,90.1,136.2,90.4,135.1z M57.6,111.8c0.4-1.1,0.8-2.4,1.4-3.6c0.6-1.3,1.5-2.4,2.2-3.7c-3,0.2-5.9,0.4-8.7,0.6 c-1.2,2.3-2.4,4.7-3.7,7.2c0.5,0.1,1,0.3,1.3,0.3C52.6,112.3,54.9,112.1,57.6,111.8z M80.2,115.2c0.7-0.1,1.1-0.2,1.6-0.2 c1.9-0.2,3.7-0.4,5.6-0.5c1.3-0.1,1.3,0,1.8-1.2c1-2.4,1.9-4.8,2.9-7.2c0.1-0.2,0.1-0.6,0.1-0.8c-1.2,0.2-2.3,0.3-3.5,0.4 c-1.3,0.1-2.7,0.2-4,0.3c-1.3,0.1-1.4,0.2-1.7,1.4c-0.3,1.1-0.6,2.1-0.9,3.1C81.5,112,80.9,113.5,80.2,115.2z M80.8,129.2 c0.2,0.1,0.4,0.2,0.6,0.2c2,0.2,4,0.3,6.1,0.4c1.1,0.1,1.3-0.1,1.7-1.2c0.7-2.2,1.3-4.5,2-6.7c0-0.1,0-0.3-0.1-0.5 c-0.3,0-0.5-0.1-0.8-0.1c-2.2,0.2-4.4,0.4-6.7,0.6c-0.7,0.1-0.9,0.5-1.1,1.1c-0.5,1.8-1.1,3.6-1.7,5.3 C80.8,128.7,80.8,128.9,80.8,129.2z M65.9,110.8c2.4,0.2,4.4,0.4,6.5,0.6c0.8,0.1,1.3-0.4,1.6-1.2c0.8-2,1.7-4,2.5-6.1 c0.1-0.2,0-0.4,0-0.8c-2.7,0.3-5.4,0.5-8.2,0.8C67.5,106.2,66.8,108.4,65.9,110.8z M112.8,40.9c4.9-7.5,11.8-12.4,19.9-15.6 c1.6-0.6,3.1-1.2,4.7-1.8c6.4-2.3,11.6-6.3,15.9-11.5c2.3-2.8,4.4-5.7,6-8.9c0.1-0.2,0.2-0.4,0.5-0.8c1,0.5,2,1,2.9,1.5 c8,4.9,16.1,9.7,24,14.6c4.8,3,9.5,6,14.2,9.1c4.8,3.1,9.6,6.3,14,10.2c-0.2,0.3-0.5,0.7-0.8,1c-8.7,8.6-17.7,16.9-27.8,24 c-7.5,5.3-14.3,11.4-20.3,18.3c-4.4,5.1-8.2,10.6-11.2,16.7c-0.4,0.7-0.8,1.4-1.1,2c-0.1,0.1-0.2,0.2-0.4,0.4 c-1-1.8-2.2-3.3-2.7-5.3c-1.2-5.3-3.6-10-6.9-14.2c-10.2-13.1-20.4-26.3-30.6-39.4C113,41.2,112.9,41.1,112.8,40.9z M174.2,9.7 c1.8-1.6,3.4-3,5-4.4c1-0.9,2-1.7,2.9-2.6c0.7-0.6,1.4-0.8,2.4-0.3c8.3,3.9,16.6,7.8,24.9,11.6c13.2,6.1,26.4,12.2,39.6,18.3 c0.7,0.3,1.2,0.7,1.6,1.5c-0.3,0.3-0.6,0.7-0.9,1c-26,22.9-52,45.8-78,68.6c-1.5,1.3-3,2.7-4.6,4c-0.6,0.5-1.4,0.8-2.2,1.3 c-0.2-0.6-0.2-0.9-0.4-1.2c19.7-18.9,39.4-37.9,59.2-56.9c-0.5-0.3-0.9-0.6-1.3-0.9c0.1-0.4,0.2-0.8,0.3-1.2 c0.1-0.6,0.1-1.1-0.5-1.5c-1.1-0.7-1.4-1.8-1.6-2.9c-0.1-0.8-0.4-1.3-1.2-1.6c-0.9-0.4-1.8-0.8-1.8-2.1c0-0.4-0.7-0.8-1.1-1.2 c-0.4-0.3-0.8-0.5-0.6-1.2c0.1-0.3-0.4-0.9-0.8-1.2c-2.2-1.8-4.4-3.7-6.8-5.2c-10.6-6.9-21.2-13.6-31.9-20.4 C175.8,10.6,175.1,10.2,174.2,9.7z M26,58.7c1,0.5,1.9,0.9,2.8,1.4C47.6,69.1,66.4,78,85.3,87c20.1,9.5,40.1,19,60.2,28.6 c1.1,0.5,2.1,0.8,3.3,0.8c3.8,0,7.6,0,11.4,0c0.6,0,1.2,0,1.9,0c0.5,3.3,0.3,6.4,0.3,9.7c-1.7,0.1-3.2,0.2-4.6,0.2 c-2.1,0.1-4.2,0.2-6.2,0.3c-1.2,0.1-2.2-0.1-3.2-0.9c-0.5-0.4-1.3-0.6-2-0.9c-26.6-12.2-53.2-24.3-79.8-36.4 C52.4,81.9,38.2,75.5,24,69c-0.3-0.2-0.6-0.3-1.1-0.6C23.9,65.2,24.9,62.1,26,58.7z M114.7,92c0.5,0.2,1,0.3,1.5,0.5 c10.7,5,21.5,9.9,32.2,14.9c0.5,0.2,1,0.4,1.6,0.4c-30.3-14.4-60.8-28.5-91.2-42.5c0.4,0.7,0.4,0.7,1,1c5.9,2.7,11.7,5.4,17.6,8.2 c0.5,0.2,1,0.5,1.4,0.9c-0.5-0.2-0.9-0.3-1.4-0.5c-6.7-2.9-13.3-5.9-20-8.8c-0.8-0.3-1.2-0.9-1.6-1.6c-5-8-10.1-16.1-15.1-24.1 c-3.1-4.9-6.2-9.8-9.3-14.7c-0.4-0.6-0.8-1.2-1.3-1.8c-0.5-0.6-0.5-1.2-0.2-2.2c3.3,4.8,6.2,9.6,9.2,14.2c3,4.7,6,9.4,9,14.1 c3,4.7,6,9.3,9.2,13.9c-0.8-1.9-2-3.6-3-5.3c-1.1-1.8-2.2-3.5-3.3-5.3s-2.2-3.5-3.3-5.3c-1.2-1.8-2.3-3.6-3.5-5.4 c-1.1-1.8-2.2-3.5-3.4-5.3c-1.1-1.8-2.2-3.5-3.4-5.3c-1.1-1.8-2.2-3.5-3.4-5.3s-2.2-3.5-3.3-5.3c0.2-0.6,0.5-1.1,0.8-1.8 c9.4,14.7,18.6,29.2,28,43.9c0.4-0.8,0-1.1-0.2-1.5c-2.7-4.2-5.3-8.4-8-12.5C44.7,39.8,38.4,30,32.1,20.2c-0.3-0.5-0.5-1.1-0.7-1.7 c-0.1-0.3,0-0.8,0.2-0.9c1.5-1.1,1.7-2.8,2.3-4.3c0-0.1,0.2-0.2,0.5-0.5c10,15.5,20,31,30.2,46.7c0.3-1-0.2-1.4-0.5-1.8 c-3.8-5.9-7.6-11.8-11.5-17.7C46.8,30.8,40.9,21.8,35,12.6c0.3-0.5,0.5-1.1,0.9-1.8c0.4,0.7,0.8,1.2,1.2,1.8 c9.5,14.7,19,29.3,28.4,44c0.8,1.2,1.7,2,3,2.3c1.6,0.5,2.6,1.6,3.3,2.9c0.4,0.7,0.9,1.2,1.7,1.4c3,0.8,5.9,1.6,8.9,2.4 c0.4,0.1,0.8,0.3,1.2,0.4c22.4,11.4,44.8,22.8,67.2,34.2c1.3,0.7,2.6,1.3,4,2c1.2-1.1,2.3-2.2,3.6-3.5c0.3,0.6,0.4,1.1,0.6,1.5 c-1.2,1.2-2.3,2.3-3.5,3.5c-7-3.3-14.1-6.7-21.2-10.1c-7.1-3.4-14.2-6.8-21.3-10.2c-7.1-3.4-14.1-6.7-21.2-10.1s-14.1-6.8-21.2-10 c-0.1,0.1-0.1,0.3-0.2,0.4c0.6,0.3,1.2,0.6,1.7,0.9c13.5,6.4,27,12.9,40.5,19.3c13.9,6.6,27.8,13.2,41.7,19.8 c1.5,0.7,1.5,0.7,2.6-0.5c0.7-0.7,1.5-1.4,2.3-2.3c0.3,0.7,0.4,1.1,0.7,1.7c-0.9,0.9-1.9,1.8-2.8,2.7c-0.6,0.6-1.1,0.3-1.7,0 c-5.4-2.5-10.7-5.1-16.1-7.6c-22.2-10.4-44.4-20.9-66.7-31.3c-0.8-0.4-1.7-0.8-2.5-1.1c-0.1,0.1-0.1,0.2-0.2,0.3 c0.5,0.3,1,0.6,1.5,0.8c7.2,3.4,14.3,6.8,21.5,10.2c20.6,9.7,41.2,19.4,61.8,29.1c0.4,0.2,0.8,0.3,1.1,0.5c0.6,0.4,1.1,0.2,1.6-0.3 c0.8-0.8,1.6-1.6,2.4-2.4c1.3,1.1-0.1,1.8-0.5,3c0.6-0.3,0.9-0.5,1.4-0.8c0.1,0.4,0.2,0.8,0.4,1.2c-0.2,0.1-0.3,0.3-0.4,0.3 c-4,0.8-8.1,0.9-12.1,0.6c-1.2-0.1-2.2-0.7-3.2-1.2c-6.4-3.1-12.8-6.3-19.3-9.4c-3.3-1.6-6.6-3.2-9.9-4.8 C115.6,92.6,115.1,92.3,114.7,92L114.7,92z M63.3,65.9c0.3,0.2,0.6,0.4,0.9,0.5c29.9,13.7,59.7,27.3,89.6,40.9c0,0,0.1,0,0.1-0.1 c0,0,0.1-0.1,0.1-0.1C152.9,106.3,66,66.6,63.3,65.9z M62.9,60.2c-0.1-0.3-0.2-0.5-0.4-0.8C53,44.8,43.6,30.3,34.1,15.8 c0,0-0.1-0.1-0.1,0c0,0-0.1,0.1-0.1,0.1C34.8,17.8,61.8,59.6,62.9,60.2z M52.3,48.1c-0.3-0.5-0.5-0.9-0.7-1.3 c-5.1-8-10.2-16-15.3-24c-1-1.5-1.9-3-2.9-4.5c-0.1-0.2-0.3-0.3-0.5-0.4c-0.1,0.1-0.2,0.2-0.2,0.2c6.4,10,12.9,20,19.3,30 C51.8,48.2,52,48.1,52.3,48.1z M53.2,49.6c0.5,1.6,7.2,11.6,8.1,12.1c-2.4-3.8-4.9-7.6-7.4-11.4C53.8,50.1,53.5,50,53.2,49.6z M68.8,65.3c-1.1-1.2-3.8-2.6-5.1-2.5C65.6,63.7,67,64.7,68.8,65.3z M268.6,30c-34.4,28-68.5,55.9-102.8,83.9 c-0.2-1.4-0.5-2.8-0.7-4.2c0.3-0.2,0.6-0.3,0.8-0.4c1.2-0.5,2.3-1.1,3.1-2.3c0.4-0.6,1.1-1,1.6-1.5c25.5-22.4,51-44.8,76.5-67.2 c0.9-0.8,1.9-1.7,2.8-2.5c0.4-0.3,0.8-0.7,1.1-1.1c0.6-0.9,0.6-1.3-0.2-2c-0.8-0.6-1.6-1.2-2.5-1.6c-6.1-2.9-12.2-5.7-18.3-8.5 c-11.4-5.3-22.8-10.5-34.2-15.8c-2.9-1.3-5.9-2.7-9-4.2c0.8-0.8,1.5-1.5,2.2-2.3C215.5,10.1,241.9,20,268.6,30z M12.9,12.5 c5.8,2.5,11.5,5,17.3,7.5c-0.3,0.4-0.5,0.6-0.7,0.8c-1.1,1.3-1.1,2-0.3,3.4c5.2,8.2,10.4,16.5,15.6,24.7c3.4,5.3,6.8,10.6,10.1,16 c0.7,1.1,1.5,1.7,2.6,2.1c10.3,4.5,20.7,8.9,30.9,13.5c10.1,4.6,20.1,9.6,30.2,14.4c8.7,4.2,17.5,8.4,26.1,12.7 c1.9,0.9,3.7,1.2,5.7,1.3c3.3,0.1,6.7,0,10-0.6c0.2,0,0.4,0,0.6,0c0.4,0.7,0.3,1.1-0.5,1.2c-1.2,0.2-2.4,0.4-3.6,0.5 c-4.5,0.3-9.1,0.2-13.5-0.8c-0.4-0.1-0.8-0.2-1.2-0.4c-20.7-9.8-41.4-19.7-62.1-29.6C65.9,72.5,51.7,65.8,37.4,59 c-1-0.5-1.6-1.1-2.1-2c-6.9-12.8-13.7-25.5-20.6-38.3c-0.6-1.1-1.3-2.3-1.9-3.4C12.4,14.5,12.1,13.5,12.9,12.5z M169.5,124 c1.8-3.1,3.5-6,5.3-9.1c0.5,0.2,1.1,0.4,1.6,0.6c24.2,11.4,48.5,22.8,72.8,34.2c0.9,0.4,1.2,0.9,1.4,1.9c0.5,2.7-0.1,5.1-2,7.3 c-0.6-0.3-1.2-0.5-1.8-0.7c-24.2-10.4-48.5-20.9-72.7-31.3c-0.7-0.3-1.3-0.6-2-0.8C170.9,125.8,170.1,125.1,169.5,124z M161.6,110.6 c0.2,1.6,0.4,3,0.5,4.7c-0.6,0.1-1,0.1-1.5,0.1c-4.2,0-8.4,0.1-12.7,0.1c-0.7,0-1.4-0.3-2.1-0.6c-12-5.7-23.9-11.4-35.8-17.1 c-27-12.9-53.9-25.7-80.9-38.5c-0.6-0.3-1.1-0.7-1.7-0.8c-1.5-0.2-2-1.3-2.5-2.4C17.8,42.5,10.7,28.9,3.6,15.2 c-0.3-0.5-0.5-1.1-0.9-1.9c0.6,0.2,0.9,0.3,1.2,0.5c3,1.5,6,3,9,4.5c0.8,0.4,1.3,0.9,1.7,1.7c6.6,12.2,13.2,24.4,19.8,36.6 c0.3,0.5,0.4,1.2,0.3,1.9c0.3,0.2,0.7,0.4,1.1,0.6c34.2,16.3,68.5,32.5,102.7,48.8c5.3,2.6,10.7,3.5,16.5,3.2 C157,111,159.2,110.8,161.6,110.6z M166.4,125.7c0-1.1,0-1.8,0-2.6c-0.1-2.2-0.2-4.5-0.4-6.7c-0.1-1.1,0.2-1.8,1.1-2.5 c6-4.8,12-9.7,18-14.6c27.6-22.5,55.2-45,82.8-67.5c0.5-0.4,1-0.9,1.6-1.4c1.6,1.7,3.1,3.3,4.7,4.9c-0.1,0.2-0.2,0.3-0.3,0.4 c-12.5,9.8-25.1,19.5-37.6,29.3C215.9,81,195.5,97,175.2,113c-0.6,0.4-1.1,0.8-1.4,1.6c-1.7,3.9-3.8,7.5-6.8,10.6 C166.9,125.3,166.8,125.4,166.4,125.7z M139.2,122.5c2.3,1.1,4.6,2.1,7.1,3.2c-0.3,0.8-1,1.1-1.5,1.6C109.9,154.1,75,181,40.2,208 c-0.7,0.6-1.4,0.8-2.3,0.6c-1.3-0.3-2.8-0.4-4.5-0.6C68.8,179.3,104,150.9,139.2,122.5z M150.9,100c-21.8-11.1-43.5-22.2-65.3-33.3 c0-0.1,0-0.2,0.1-0.2c0.4,0,0.8,0,1.1,0.1c4.8,0.6,9.5,1.1,14.3,1.7c3.9,0.5,7.7,1,11.6,1.6c1,0.2,1.9,0.5,2.8,0.8 c6,2.4,11.8,5.4,16.4,10.1c3.3,3.3,6.4,6.7,9.6,10.1c2.8,3,5.7,5.8,8.9,8.3c0.2,0.2,0.4,0.4,0.7,0.6C151,99.9,150.9,99.9,150.9,100z M246.3,147.6c-23.6-11.1-47.3-22.2-71.2-33.5c3.3-2.6,6.4-5,9.6-7.5c20.6,13.6,41.2,27.2,61.7,40.7 C246.4,147.5,246.4,147.5,246.3,147.6z M160.8,95.7c-0.7-1.2-1.3-2.3-2-3.6c1.7-2.4,3.4-4.9,5.2-7.2c6.4-8.3,14.1-15.4,22.7-21.4 c8.4-5.8,16.1-12.4,23.4-19.5c1.7-1.6,3.4-3.2,5.2-4.9c0.6,0.5,1.1,0.9,1.7,1.4C198.2,58.9,179.5,77.2,160.8,95.7z M1.6,13.3 C2,14.1,2.3,14.5,2.5,15c7.4,14.1,14.8,28.3,22.2,42.4c0.4,0.8,0.5,1.4,0.1,2.2c-0.8,2.2-1.5,4.5-2.3,6.8c-0.1,0.4-0.3,0.7-0.5,1.3 c-0.3-0.7-0.6-1.1-0.8-1.6C14.7,51.6,8.1,37,1.3,22.5c-1-2.2-1.4-4.1-0.5-6.3C1.1,15.4,1.3,14.5,1.6,13.3z M22.1,68.2l-0.5-1 c-0.2-0.4-0.3-0.7-0.5-1c-1.7-3.7-3.4-7.4-5-11.1C11.2,44.5,6.2,33.4,1.2,22.6c-1.2-2.5-1.3-4.4-0.5-6.5C0.8,15.6,1,15,1.1,14.4 c0.1-0.3,0.2-0.7,0.3-1.1l0.1-0.4l0.2,0.4c0.1,0.3,0.3,0.5,0.4,0.7c0.2,0.4,0.4,0.7,0.5,1l5.2,9.9c5.6,10.8,11.3,21.6,17,32.5 c0.4,0.8,0.5,1.5,0.2,2.3c-0.6,1.6-1.1,3.2-1.6,4.7c-0.2,0.7-0.5,1.4-0.7,2.1c-0.1,0.2-0.2,0.5-0.3,0.8c-0.1,0.2-0.1,0.3-0.2,0.6 L22.1,68.2z M1.7,13.8c-0.1,0.2-0.1,0.5-0.2,0.7c-0.2,0.7-0.3,1.2-0.5,1.8c-0.8,2-0.6,3.8,0.5,6.2C6.5,33.3,11.6,44.3,16.4,55 c1.7,3.7,3.4,7.4,5,11.1c0.1,0.3,0.3,0.6,0.5,1l0.1,0.2c0-0.1,0-0.1,0.1-0.2c0.1-0.3,0.2-0.5,0.3-0.8c0.2-0.7,0.5-1.4,0.7-2.1 c0.5-1.6,1-3.2,1.6-4.8c0.3-0.8,0.2-1.3-0.1-2.1C18.9,46.7,13.2,35.8,7.6,25l-5.2-9.9c-0.2-0.3-0.3-0.6-0.5-1 C1.8,14,1.7,13.9,1.7,13.8z M162.6,100.2c-0.3-0.7-0.5-1.2-0.7-1.7c18.7-18.6,37.4-37.2,56.2-55.7c0.4,0.2,0.7,0.2,1,0.4 c0.9,0.5,1,0.9,0.2,1.7c-0.5,0.5-1,1-1.4,1.4c-17.2,16.8-34.5,33.7-51.7,50.5C165,97.9,163.9,98.9,162.6,100.2z M36.9,10.7 c0.3,0.2,0.7,0.4,1,0.6c2.7,1.7,5.5,3.4,8.2,5.2c0.4,0.3,0.8,0.7,1,1.1C52.6,29,58.4,40.2,64.6,51.3c1.3,2.4,2.8,4.6,4.2,7.1 c-1.1-0.2-1.9-0.6-2.5-1.6C56.8,42,47.3,27.2,37.7,12.5c-0.3-0.5-0.7-1.1-1-1.6C36.8,10.8,36.9,10.7,36.9,10.7z M117.1,68.1 c8.9,0.5,16.2,3.9,22.4,9.5c5.1,4.6,8.5,10.2,10.3,16.8c0.4,1.5,0.8,2.9,1.7,4.2c0.2,0.2,0.3,0.5,0.4,0.8c-0.1,0.1-0.2,0.1-0.3,0.2 c-0.9-1.1-1.7-2.1-2.6-3.2c-2.9-3.9-5.7-7.8-8.7-11.7c-1.4-1.8-3-3.5-4.5-5.2c-4.5-4.8-10-7.9-16-10.3 C119.1,68.8,118.2,68.5,117.1,68.1z M219.6,44.8c1,1.7,1,1.7,0,2.8c-8.6,8.3-17.1,16.7-25.7,25c-9.7,9.5-19.4,18.9-29.1,28.4 c-0.4,0.4-0.9,0.8-1.4,1.3c-0.8-1.3-0.8-1.4,0.3-2.4c14-13.7,28-27.3,42-41c4.2-4.1,8.3-8.2,12.5-12.3 C218.7,46.2,219.1,45.6,219.6,44.8z M164,104.2c-0.8-0.8-0.3-1.3,0.2-1.8c3.1-3,6.1-6,9.2-9c14.5-14.2,29-28.3,43.6-42.5 c1.3-1.3,2.6-2.5,3.9-3.8c1.5,0.7,1.5,0.9,0.5,2c-4.5,4.3-9,8.7-13.5,13c-9.9,9.5-19.7,19-29.6,28.6c-4.5,4.3-8.9,8.6-13.4,12.9 C164.5,103.8,164.3,104,164,104.2z M221.5,49.8c0.3,0.5,0.5,0.8,0.8,1.2c-19.1,18.4-38.3,36.9-57.6,55.4c-0.7-1.2-0.7-1.3,0.1-2.1 c2.1-2.1,4.2-4.1,6.3-6.1c15-14.4,30-28.8,45.1-43.2C217.8,53.3,219.6,51.6,221.5,49.8z M161.7,97.8c-0.3-0.6-0.5-1.1-0.7-1.6 c18.6-18.3,37.2-36.5,55.9-54.9c0.2,0.4,0.4,0.7,0.7,1C198.9,60.9,180.4,79.3,161.7,97.8z M161.7,98.2l-0.9-1.9l8.8-8.7l47.3-46.5 l0.9,1.4L161.7,98.2z M161.2,96.3l0.6,1.2l55.6-55.2l-0.5-0.8L161.2,96.3z M100.2,67.4c1.3,0,3,0,4.8,0c0.9,0,1.9,0.2,2.8,0.1 c5.9-0.4,11.2,1.6,16.3,4.1c5.3,2.7,9.8,6.2,13.7,10.7c3.8,4.3,7.1,9,10.4,13.7c0.1,0.1,0,0.2,0.1,0.5c-0.7-0.6-1.2-1-1.7-1.5 c-3.8-3.9-7.6-7.8-11.3-11.9c-5.2-5.7-11.3-9.8-18.3-12.7c-2.6-1.1-5.4-1.6-8.2-2C105.7,68.1,102.7,67.8,100.2,67.4z M158.7,92.9 c1.1,2.4,2.3,4.5,3.1,6.8c1.4,3.6,2.2,7.4,2.8,11.2c0.2,1.1,0.5,2.2,0.6,3.4c0.2,2.1,0.3,4.2,0.4,6.4c0.1,2.5,0,5,0,7.5 c0,1.2-0.4,2.1-1.1,2.9c-0.4,0.4-0.7,0.9-1.3,1.5c-0.1-0.7-0.1-1.1-0.1-1.6c-0.1-4.6-0.2-9.3-0.3-13.9c-0.1-4.2-1-8.2-2-12.3 c-0.7-2.8-1.6-5.6-2.9-8.2C157.2,95.2,157.3,94.2,158.7,92.9z M89.3,136.2c-0.2,0.8-0.5,1.5-0.8,2.5c-2.9-0.2-5.8-0.4-8.8-0.6 c0.2-1,0.4-1.8,0.6-2.7C83.3,135.6,86.2,135.9,89.3,136.2z M52.3,108c0.3-1,0.5-1.6,0.6-2.2c2.2-0.1,4.3-0.2,6.4-0.2 c-0.3,1.1-0.9,1.8-2.1,1.9C55.7,107.6,54.1,107.8,52.3,108z M83.4,109.5c0.2-1,0.4-1.8,0.7-2.6c2.3-0.2,4.4-0.3,6.9-0.4 c-0.3,0.7-0.6,1.3-0.8,1.8C87.9,108.7,85.8,109.1,83.4,109.5z M83.5,122.8c2.3-0.2,4.4-0.4,6.7-0.6c-0.2,0.5-0.3,0.9-0.5,1.5 c-2.1,0.2-4.2,0.3-6.4,0.5C83.4,123.7,83.4,123.3,83.5,122.8z M68.8,104.8c2.3-0.2,4.4-0.3,6.7-0.5c-0.3,0.6-0.5,1.1-0.8,1.7 c-1.7,0.1-3.3,0.1-4.9,0.2c-0.4,0-0.8-0.1-1.4-0.1C68.6,105.5,68.8,105.1,68.8,104.8z" style="fill: url(&quot;#__id17_s2c681c1z3&quot;);"/></svg>